<?xml version="1.0" standalone="no"?>
<!DOCTYPE svg PUBLIC "-//W3C//DTD SVG 20010904//EN"
 "http://www.w3.org/TR/2001/REC-SVG-20010904/DTD/svg10.dtd">
<svg version="1.0" xmlns="http://www.w3.org/2000/svg"
 width="512.000000pt" height="512.000000pt" viewBox="0 0 512.000000 512.000000"
 preserveAspectRatio="xMidYMid meet">
<metadata>
Created by potrace 1.14, written by Peter Selinger 2001-2017
</metadata>
<g transform="translate(0.000000,512.000000) scale(0.100000,-0.100000)"
fill="#000000" stroke="none">
<path d="M1737 5066 c-36 -13 -52 -23 -90 -56 -78 -67 -120 -134 -146 -234
l-16 -58 -75 -28 c-90 -33 -192 -78 -200 -88 -3 -4 -21 -15 -40 -24 -37 -19
-48 -25 -117 -70 -23 -16 -46 -28 -51 -28 -6 0 -13 -7 -16 -16 -3 -8 -10 -13
-15 -10 -5 4 -11 2 -13 -3 -1 -4 -33 -31 -70 -59 -93 -70 -152 -120 -242 -204
-22 -21 -44 -38 -50 -38 -5 0 -7 -2 -4 -5 2 -3 -25 -35 -62 -72 -36 -38 -90
-97 -120 -133 -30 -36 -58 -66 -62 -68 -5 -2 -8 -10 -8 -18 0 -8 -4 -14 -10
-14 -5 0 -10 -7 -10 -15 0 -8 -4 -15 -8 -15 -8 0 -72 -86 -72 -97 0 -3 -8 -12
-17 -20 -12 -10 -13 -12 -3 -8 10 4 9 2 -2 -8 -10 -8 -18 -20 -18 -27 0 -8 -8
-22 -18 -33 -9 -11 -11 -17 -3 -12 10 5 9 1 -2 -16 -14 -22 -16 -97 -4 -149 8
-36 49 -110 67 -123 11 -8 18 -16 16 -18 -2 -2 2 -10 10 -17 8 -7 14 -10 14
-7 0 3 11 -5 25 -19 13 -13 34 -27 45 -31 11 -3 20 -11 20 -17 0 -6 3 -8 7 -5
3 4 15 -1 26 -10 10 -10 21 -17 23 -15 2 1 17 -4 34 -13 16 -8 37 -16 47 -18
10 -2 27 -8 38 -14 11 -6 23 -12 27 -12 4 -1 13 -3 20 -6 64 -21 313 -79 428
-99 47 -9 99 -19 115 -24 47 -14 156 -72 200 -105 64 -50 142 -122 160 -149 6
-9 28 -42 50 -74 81 -118 140 -263 105 -256 -8 2 -35 5 -60 7 -25 2 -70 7
-100 11 -30 4 -66 8 -80 9 -14 2 -25 4 -25 5 0 1 -14 3 -31 5 -37 4 -197 58
-216 74 -63 50 -102 90 -118 120 -10 20 -31 50 -47 68 -25 28 -34 31 -74 29
-25 -2 -61 -11 -80 -21 -41 -22 -123 -103 -145 -146 -12 -25 -20 -30 -37 -24
-102 32 -207 28 -295 -13 -104 -48 -199 -170 -219 -282 -10 -57 -8 -127 3
-163 7 -20 14 -41 15 -45 9 -42 65 -152 94 -186 14 -16 25 -33 25 -37 0 -17
123 -139 168 -168 59 -37 164 -66 185 -51 1 1 14 4 29 6 22 4 36 -4 71 -38 52
-52 87 -80 87 -71 0 3 9 -4 19 -16 11 -12 21 -22 23 -21 2 1 14 -3 28 -8 14
-5 28 -10 33 -11 4 0 23 -7 42 -15 20 -9 38 -15 40 -16 3 0 6 0 8 -1 1 -1 16
-2 32 -4 17 -1 30 -3 30 -5 0 -4 160 -6 168 -2 5 2 32 6 60 8 29 2 77 10 107
19 30 8 66 18 79 21 13 3 32 9 43 15 10 5 18 7 18 4 0 -3 10 1 22 9 12 9 30
16 40 16 10 0 18 4 18 8 0 4 17 14 38 21 20 7 51 24 68 37 17 13 34 20 38 17
3 -4 6 -2 6 3 0 15 61 47 69 38 4 -5 16 -31 25 -59 10 -27 24 -63 31 -80 12
-28 28 -73 30 -85 0 -3 6 -15 13 -26 6 -12 8 -24 5 -28 -3 -3 -1 -6 5 -6 7 0
12 -5 12 -11 0 -23 157 -326 188 -361 8 -10 12 -18 9 -18 -4 0 18 -36 48 -80
30 -45 55 -83 55 -87 0 -3 9 -14 21 -24 11 -9 19 -19 17 -21 -3 -4 32 -52 75
-101 26 -30 21 -37 -25 -37 -101 0 -305 -9 -328 -14 -14 -3 -34 -8 -45 -10
-42 -8 -139 -57 -174 -87 -163 -141 -148 -367 29 -452 l45 -22 885 0 c487 0
914 4 950 8 131 17 165 23 225 38 42 11 119 36 145 46 8 3 21 7 29 9 28 6 211
98 211 106 0 5 4 7 9 4 5 -4 11 -3 13 1 3 9 85 63 93 63 3 -1 12 5 19 12 8 7
37 33 66 58 81 69 151 139 200 200 24 30 50 61 59 67 8 7 11 13 6 13 -5 0 1
10 12 22 12 13 33 47 48 76 15 28 30 52 34 52 3 0 17 27 31 60 14 33 28 60 33
60 4 0 7 6 7 14 0 14 34 107 51 139 5 10 7 22 4 27 -4 6 -1 10 5 10 6 0 10 6
8 13 -1 6 3 28 10 47 6 19 14 49 17 65 2 17 7 41 10 55 19 91 26 167 27 291 1
121 -18 287 -35 304 -7 7 -8 6 -3 -2 4 -7 3 -13 -1 -13 -5 0 -10 -12 -11 -26
-1 -15 -6 -32 -12 -39 -5 -6 -7 -15 -3 -18 3 -4 1 -7 -5 -7 -7 0 -12 -11 -12
-24 0 -13 -7 -29 -15 -36 -8 -7 -15 -19 -15 -26 0 -8 -5 -14 -11 -14 -5 0 -8
-4 -4 -9 3 -5 -6 -21 -19 -34 -14 -14 -22 -28 -18 -33 4 -4 1 -4 -6 0 -9 5
-10 12 -3 20 5 6 12 23 15 36 3 14 10 43 16 65 6 22 13 47 15 55 2 8 4 15 5
15 3 0 21 90 25 125 2 14 4 25 5 25 3 0 10 48 14 90 2 22 5 40 6 40 17 0 16
432 0 453 -2 1 -3 10 -4 20 -7 59 -20 113 -27 118 -5 3 -7 10 -3 15 3 5 0 16
-6 24 -6 8 -9 19 -5 25 3 5 1 10 -4 10 -6 0 -11 5 -11 12 0 20 -73 162 -92
179 -10 9 -18 21 -18 26 0 8 -51 61 -145 151 -13 12 -28 22 -34 22 -5 0 -11 3
-13 8 -1 4 -16 14 -33 24 l-30 16 -1 -71 c0 -87 -6 -147 -14 -147 -3 0 -6 -12
-7 -26 0 -14 -5 -30 -10 -35 -9 -9 -12 8 -16 89 -1 12 -4 22 -8 22 -4 0 -6 8
-5 17 2 9 -1 37 -6 62 -5 25 -11 57 -14 71 -14 71 -75 210 -110 251 -8 8 -14
21 -14 27 0 7 -4 12 -10 12 -5 0 -10 8 -10 17 0 9 -3 14 -6 10 -3 -3 -17 6
-29 21 -32 39 -141 123 -149 115 -3 -3 -6 -1 -6 5 0 9 -50 31 -85 36 -8 1 -17
5 -20 8 -12 12 -54 -18 -69 -48 -16 -35 -15 -119 3 -194 15 -64 62 -203 73
-217 6 -7 8 -13 5 -13 -6 0 9 -39 44 -117 10 -23 19 -44 19 -48 0 -3 9 -24 19
-48 45 -98 104 -271 127 -377 4 -19 8 -37 9 -40 1 -3 6 -36 13 -75 6 -38 14
-86 17 -105 23 -133 23 -441 0 -558 -1 -9 -6 -39 -9 -67 -4 -27 -11 -66 -16
-85 -5 -19 -11 -48 -14 -65 -12 -76 -40 -191 -48 -200 -6 -6 -7 -4 -4 5 20 61
29 495 13 610 -16 111 -18 126 -33 200 -13 69 -19 91 -40 145 -4 11 -7 23 -6
27 1 4 -5 26 -14 50 -9 24 -17 48 -18 53 -1 6 -7 20 -14 32 -7 12 -12 31 -12
42 0 12 -5 21 -11 21 -5 0 -7 5 -4 10 3 6 1 10 -6 10 -7 0 -9 3 -6 7 4 3 0 17
-8 30 -9 13 -13 23 -11 23 3 0 -13 31 -35 70 -21 38 -39 72 -39 74 0 8 -117
174 -159 226 -51 63 -281 287 -281 274 0 -3 -10 4 -22 16 -12 11 -56 42 -97
70 -42 28 -81 54 -87 59 -6 5 -20 12 -31 15 -12 4 -27 13 -33 21 -7 8 -21 15
-31 15 -11 0 -19 4 -19 8 0 4 -29 21 -65 37 -36 17 -65 34 -65 38 0 5 -4 6 -8
3 -4 -2 -34 9 -65 25 -32 16 -64 29 -72 29 -8 0 -15 4 -15 9 0 8 -56 25 -72
22 -5 0 -8 3 -8 9 0 5 -6 10 -12 10 -7 0 -26 7 -42 15 -16 9 -37 17 -45 18
-30 6 -146 70 -189 104 -44 36 -61 64 -68 118 -4 25 -12 62 -19 85 -1 3 -7 24
-13 46 -15 51 -99 218 -127 250 -5 6 -17 22 -25 34 -44 65 -175 195 -265 262
-76 56 -105 91 -86 103 15 9 9 122 -9 178 -25 74 -62 131 -107 162 -43 28 -53
29 -106 11z"/>
</g>
</svg>
